<?xml version="1.0" encoding="UTF-8"?>
<!DOCTYPE svg PUBLIC "-//W3C//DTD SVG 1.1//EN" "http://www.w3.org/Graphics/SVG/1.1/DTD/svg11.dtd">
<!-- Creator: CorelDRAW X7 -->
<svg xmlns="http://www.w3.org/2000/svg" xml:space="preserve" width="45mm" height="45.0095mm" version="1.1" style="shape-rendering:geometricPrecision; text-rendering:geometricPrecision; image-rendering:optimizeQuality; fill-rule:evenodd; clip-rule:evenodd"
viewBox="0 0 4500 4501"
 xmlns:xlink="http://www.w3.org/1999/xlink">
 <defs>
  <style type="text/css">
   <![CDATA[
    .fil0 {fill:#FEFEFE}
   ]]>
  </style>
 </defs>
 <g id="Warstwa_x0020_1">
  <metadata id="CorelCorpID_0Corel-Layer"/>
  <g id="_432105136">
   <path class="fil0" d="M4454 2706c0,-123 -189,-187 -234,-3 -77,319 -181,537 -376,793 -69,90 -149,163 -229,244 -227,230 -606,407 -927,484 -395,94 -892,47 -1255,-128 -190,-92 -303,-154 -467,-292 -53,-45 -82,-73 -131,-122 -242,-242 -231,-267 -375,-508 -176,-294 -259,-795 -210,-1156 30,-213 101,-505 205,-679 18,-30 27,-50 44,-83 149,-277 479,-609 758,-758 33,-17 53,-25 83,-43 217,-131 640,-223 914,-223 263,0 547,62 776,161 113,48 206,95 304,159 90,59 195,128 270,203 134,134 219,214 324,372 137,206 230,410 290,657 24,99 41,132 131,132 215,0 32,-398 -14,-513 -52,-133 -114,-237 -183,-353l-164 -226c-223,-239 -349,-371 -657,-543 -337,-188 -658,-258 -1046,-281l-258 15c-363,52 -502,93 -815,248 -445,221 -828,647 -1025,1103 -82,190 -176,525 -175,751 0,61 -10,71 -12,126 -1,57 9,68 11,115 16,296 57,489 170,768 47,116 119,236 184,342l170 230c139,156 172,190 337,326 188,155 467,295 693,370 289,96 622,128 933,93 91,-10 145,-18 227,-36 565,-120 1119,-493 1418,-983 37,-60 64,-99 97,-165 65,-132 214,-463 214,-597z"/>
   <path class="fil0" d="M1064 3264c67,-126 338,-317 477,-386 464,-230 970,-231 1432,3 162,82 386,252 481,393 -85,58 -182,222 -488,376 -455,229 -969,229 -1425,0 -93,-47 -182,-107 -262,-169 -25,-20 -34,-31 -57,-49 -47,-36 -132,-120 -158,-168zm-568 -684c0,283 263,722 481,939l106 95c516,480 1424,588 2060,202 109,-67 232,-144 324,-233 317,-305 288,-321 143,-485 -26,-29 -34,-44 -64,-74 -615,-608 -1485,-728 -2234,-281l-277 208c-37,34 -79,100 -129,113 -3,-14 -94,-183 -135,-307 -46,-139 -43,-283 -170,-283 -53,0 -105,53 -105,106z"/>
   <path class="fil0" d="M590 2032c137,0 126,-113 157,-212 140,-447 443,-817 872,-1002 470,-202 1003,-176 1437,86 159,95 317,233 431,379 125,161 230,28 230,-40 0,-91 -237,-311 -318,-377 -540,-440 -1204,-530 -1860,-264 -482,195 -866,654 -1010,1147 -12,39 -39,133 -39,168 0,50 48,115 100,115z"/>
   <path class="fil0" d="M1812 1611l0 -63c0,-208 202,-411 410,-411l63 0c209,0 411,203 411,411l0 63c0,207 -203,411 -411,411l-63 0c-208,0 -410,-203 -410,-411zm-232 -74c0,215 44,365 197,519 50,49 118,104 182,134 260,121 563,74 771,-134 50,-50 106,-118 133,-183 83,-196 93,-391 2,-588 -92,-198 -342,-379 -569,-379l-84 0c-317,0 -632,314 -632,631z"/>
   <path class="fil0" d="M3707 1716l0 421 -442 0c-152,0 -152,232 0,232l442 0 0 421c0,192 231,166 231,32l0 -453 453 0c145,0 145,-232 0,-232l-453 0 0 -452c0,-135 -231,-160 -231,31z"/>
   <path class="fil0" d="M454 2253c0,152 231,152 231,0 0,-151 -231,-151 -231,0z"/>
  </g>
 </g>
</svg>
