<?xml version="1.0" encoding="UTF-8"?>
<!DOCTYPE svg PUBLIC "-//W3C//DTD SVG 1.1//EN" "http://www.w3.org/Graphics/SVG/1.1/DTD/svg11.dtd">
<!-- Creator: CorelDRAW X7 -->
<svg xmlns="http://www.w3.org/2000/svg" xml:space="preserve" width="45mm" height="45mm" version="1.1" style="shape-rendering:geometricPrecision; text-rendering:geometricPrecision; image-rendering:optimizeQuality; fill-rule:evenodd; clip-rule:evenodd"
viewBox="0 0 4500 4500"
 xmlns:xlink="http://www.w3.org/1999/xlink">
 <defs>
  <style type="text/css">
   <![CDATA[
    .fil0 {fill:#FEFEFE}
   ]]>
  </style>
 </defs>
 <g id="Warstwa_x0020_1">
  <metadata id="CorelCorpID_0Corel-Layer"/>
  <g id="_435837744">
   <path class="fil0" d="M4096 4351l-2936 0c-107,0 -179,-35 -228,-115 -14,-22 -27,-52 -27,-88l0 -1916c0,-102 100,-202 202,-202l3041 0c117,0 203,115 203,255l0 1811c0,160 -95,255 -255,255zm-1632 -4351l67 0c55,5 110,22 159,52 96,58 664,644 749,728 127,128 531,518 632,633 103,117 156,223 113,389 -21,82 -41,59 -13,74 12,8 79,3 166,63 75,50 163,164 163,285l0 1916c0,195 -175,360 -352,360l-3049 0c-102,0 -197,-57 -258,-129 -35,-40 -50,-63 -73,-120 -37,-93 -22,-605 -21,-753 1,-105 11,-83 -46,-138 -132,-130 -256,-256 -387,-387 -194,-194 -314,-261 -314,-503 0,-170 158,-285 248,-376l923 -923c209,-209 411,-411 620,-619 112,-113 321,-313 425,-428 67,-74 156,-116 248,-124zm-1825 3078l106 -100 2 204 -108 -104zm-103 -107l-213 -209 422 -417c2,63 10,379 -2,410 -12,30 -175,168 -207,216zm1318 -1099l1224 -1228c36,23 87,82 123,118 45,45 83,83 128,128l501 501c88,88 293,240 183,425 -25,42 -28,57 -92,57l-2067 -1zm-632 0l1544 -1549 203 206c-30,46 -142,146 -189,194l-1064 1063c-133,134 -54,86 -494,86zm-1011 782c-122,-182 -37,-274 86,-397 103,-104 200,-200 303,-304l1679 -1678c99,-100 116,-117 243,-117 66,0 80,33 124,44 -4,42 -92,114 -139,161l-1529 1529c-55,56 -97,51 -162,146 -40,58 -7,23 -67,82 -27,27 -47,48 -74,75 -54,53 -101,100 -154,154l-310 305z"/>
   <path class="fil0" d="M1204 2399l440 0 0 299 -440 0 0 -299zm-158 18c0,147 -26,328 51,397 28,25 82,42 133,42 123,0 440,21 512,-33 24,-18 60,-69 60,-107l0 -317c0,-80 -67,-149 -132,-149l-492 0c-59,0 -132,66 -132,167z"/>
   <path class="fil0" d="M1046 3524c0,50 40,80 97,80l281 0c96,0 121,-159 -18,-159l-272 0c-45,0 -88,34 -88,79z"/>
   <path class="fil0" d="M1046 3814c0,49 30,88 79,88l299 0c97,0 123,-158 -27,-158 -72,0 -272,-12 -316,18 -11,6 -35,40 -35,52z"/>
   <path class="fil0" d="M1723 3902l298 0c107,0 113,-158 -17,-158l-255 0c-138,0 -122,158 -26,158z"/>
   <path class="fil0" d="M2250 3507c0,47 12,97 79,97l290 0c107,0 107,-159 0,-159l-290 0c-34,0 -79,34 -79,62z"/>
   <path class="fil0" d="M1731 3604l290 0c96,0 122,-159 -17,-159l-273 0c-107,0 -110,159 0,159z"/>
   <path class="fil0" d="M3445 3094c0,64 -20,211 79,211 106,0 80,-163 80,-229 0,-96 -159,-121 -159,18z"/>
   <path class="fil0" d="M1345 3085c0,63 -11,153 21,190 51,59 137,19 137,-49 0,-98 23,-229 -79,-229 -48,0 -79,44 -79,88z"/>
   <path class="fil0" d="M3146 3076c0,58 -10,167 20,200 51,56 139,19 139,-59 0,-93 20,-220 -79,-220 -44,0 -80,36 -80,79z"/>
   <path class="fil0" d="M2848 3076c0,96 -24,229 79,229 96,0 79,-142 79,-202 0,-150 -158,-124 -158,-27z"/>
   <path class="fil0" d="M1046 3094c0,64 -23,211 79,211 99,0 79,-147 79,-211 0,-131 -158,-131 -158,0z"/>
   <path class="fil0" d="M3744 3103c0,49 -6,130 18,167 42,64 140,31 140,-44 0,-98 24,-229 -79,-229 -55,0 -79,50 -79,106z"/>
   <path class="fil0" d="M1644 3103c0,49 -7,130 17,167 42,64 141,31 141,-44 0,-78 21,-229 -71,-229 -62,0 -87,44 -87,106z"/>
   <path class="fil0" d="M2250 3059c0,113 -27,246 79,246 96,0 70,-149 70,-246 0,-80 -149,-77 -149,0z"/>
   <path class="fil0" d="M1951 3067l0 176c0,71 150,91 150,-17 0,-86 24,-229 -71,-229 -42,0 -79,25 -79,70z"/>
  </g>
 </g>
</svg>
