<?xml version="1.0" encoding="UTF-8"?>
<!DOCTYPE svg PUBLIC "-//W3C//DTD SVG 1.1//EN" "http://www.w3.org/Graphics/SVG/1.1/DTD/svg11.dtd">
<!-- Creator: CorelDRAW X7 -->
<svg xmlns="http://www.w3.org/2000/svg" xml:space="preserve" width="45mm" height="45mm" version="1.1" style="shape-rendering:geometricPrecision; text-rendering:geometricPrecision; image-rendering:optimizeQuality; fill-rule:evenodd; clip-rule:evenodd"
viewBox="0 0 4500 4500"
 xmlns:xlink="http://www.w3.org/1999/xlink">
 <defs>
  <style type="text/css">
   <![CDATA[
    .fil0 {fill:#FEFEFE}
   ]]>
  </style>
 </defs>
 <g id="Warstwa_x0020_1">
  <metadata id="CorelCorpID_0Corel-Layer"/>
  <g id="_435822312">
   <path class="fil0" d="M2461 2180l571 0 0 1898 -571 0 0 -1898zm-993 527l571 0 0 1371 -571 0 0 -1371zm-993 431l571 0 0 940 -571 0 0 -940zm2838 -1336l0 2276 -140 0 0 -1960c0,-36 -30,-79 -62,-79l-712 0c-43,0 -79,36 -79,79l0 1960 -140 0 0 -1415c0,-52 -18,-88 -71,-88l-712 0c-52,0 -70,36 -70,88l0 1415 -140 0 0 -967c0,-63 -17,-114 -80,-114l-694 0c-48,0 -79,31 -79,79l0 1002 -255 0c-42,0 -79,25 -79,70l0 299c0,21 32,53 53,53l738 0c70,0 70,-132 0,-132l-659 0 0 -149 4236 0 0 149 -3296 0c-70,0 -70,132 0,132l3375 0c21,0 53,-32 53,-53l0 -299c0,-45 -37,-70 -79,-70l-255 0 0 -1019c0,-95 -141,-97 -141,8l0 1011 -571 0 0 -2259 571 0 0 906c0,128 141,106 141,17l0 -984c0,-32 -24,-70 -53,-70l-729 0c-60,0 -71,54 -71,114z"/>
   <path class="fil0" d="M3173 88c0,373 -37,334 264,334l-561 565c-30,31 -25,41 -80,42l-502 -1c-157,0 -194,103 -297,205l-180 198c-60,65 -125,126 -181,196l-118 129c-22,22 -41,38 -60,62 -25,31 -35,42 -63,69 -91,90 -46,101 -155,100 -62,-1 -185,-26 -185,70 0,92 166,70 255,70 75,0 113,-63 148,-107l249 -269c27,-26 36,-44 62,-70l312 -338c27,-27 33,-37 57,-66 21,-24 43,-43 66,-66 58,-61 56,-42 222,-42l387 0c49,0 76,-4 103,-28 87,-79 174,-175 259,-260 38,-38 508,-484 508,-529 0,-30 -33,-71 -62,-71l-308 0 0 -149 633 0c43,0 79,25 79,70l0 651 -140 0c0,-72 11,-294 -15,-337 -57,-98 -168,49 -198,79l-396 396c-88,89 -171,170 -259,259 -77,78 -62,60 -204,60 -76,0 -468,-13 -507,11 -39,25 -259,282 -317,343 -24,24 -45,40 -65,66 -54,67 -138,147 -186,201 -45,52 -290,337 -323,337l-949 0 0 -141 325 0c141,0 101,-141 35,-141l-430 0c-43,0 -71,28 -71,71l0 281c0,45 37,70 79,70l985 0c100,0 175,-71 230,-139l242 -267c28,-28 38,-39 63,-70l420 -458c34,-35 45,-24 108,-24 115,1 402,14 498,-3 111,-20 191,-127 287,-223 85,-86 164,-165 250,-251 45,-44 83,-82 128,-127 36,-36 91,-100 129,-125 0,314 -49,263 352,263 42,0 70,-27 70,-70l0 -712c0,-100 -94,-202 -193,-202l-730 0c-52,0 -70,35 -70,88z"/>
  </g>
 </g>
</svg>
