<?xml version="1.0" encoding="UTF-8"?>
<!DOCTYPE svg PUBLIC "-//W3C//DTD SVG 1.1//EN" "http://www.w3.org/Graphics/SVG/1.1/DTD/svg11.dtd">
<!-- Creator: CorelDRAW X7 -->
<svg xmlns="http://www.w3.org/2000/svg" xml:space="preserve" width="45mm" height="45.0123mm" version="1.1" style="shape-rendering:geometricPrecision; text-rendering:geometricPrecision; image-rendering:optimizeQuality; fill-rule:evenodd; clip-rule:evenodd"
viewBox="0 0 4500 4501"
 xmlns:xlink="http://www.w3.org/1999/xlink">
 <defs>
  <style type="text/css">
   <![CDATA[
    .fil0 {fill:#FEFEFE}
   ]]>
  </style>
 </defs>
 <g id="Warstwa_x0020_1">
  <metadata id="CorelCorpID_0Corel-Layer"/>
  <g id="_437563336">
   <path class="fil0" d="M1524 4283l1452 0 0 73 -1452 0 0 -73zm418 -435l616 0c18,75 87,238 91,290l-798 0c4,-52 73,-215 91,-290zm-1797 -318l0 -117 4210 0c0,129 22,290 -173,290l-3864 0c-112,0 -173,-61 -173,-173zm2323 -2077l145 0 0 363 -145 0 0 -363zm-508 -1016l145 0 0 1379 -145 0 0 -1379zm-218 798l73 0 0 581 -73 0 0 -581zm-290 -1089l145 0 0 1670 -145 0 0 -1670zm-218 1089l72 0 0 581 -72 0 0 -581zm-290 -581l145 0 0 1162 -145 0 0 -1162zm-509 799l146 0 0 363 -146 0 0 -363zm-145 -73l0 508c0,44 29,73 73,73l2322 0c44,0 73,-29 73,-73l0 -508c0,-44 -29,-72 -73,-72l-290 0c-44,0 -72,28 -72,72l0 436 -73 0 0 -581 1043 0c52,0 96,32 144,47 271,84 466,-47 528,-47 196,0 390,-39 390,172l0 1860 -4210 0 0 -1860c0,-111 61,-172 173,-172l480 0 0 581 -72 0 0 -436c0,-44 -29,-72 -73,-72l-290 0c-44,0 -73,28 -73,72zm3339 -217c-101,0 -219,-47 -299,-100l279 -284c29,-29 34,-50 83,-53l436 1c-20,240 -262,436 -499,436zm-408 -209c-259,-387 46,-774 335,-799 0,94 0,188 0,282 0,237 39,147 -188,374 -39,40 -107,116 -147,143zm481 -799c154,13 307,136 373,262 23,43 48,108 53,165l-426 0 0 -427zm-2396 -81l0 1016 -72 0 0 -508c0,-44 -29,-73 -73,-73l-290 0c-44,0 -73,29 -73,73l0 508 -526 0c-140,0 -272,132 -272,272l0 2214c0,138 122,251 238,270 71,12 1399,2 1540,2 -4,52 -73,215 -90,290 -347,0 -309,-31 -309,218l-726 0c-97,0 -97,145 0,145l3194 0c97,0 97,-145 0,-145l-726 0c0,-249 38,-218 -308,-218 -18,-75 -87,-238 -91,-290 338,0 677,0 1016,0 155,0 359,12 508,0 129,-10 254,-142 254,-263l0 -2232c0,-81 -63,-168 -112,-205 -83,-62 -132,-58 -269,-58 12,-17 16,-19 29,-35 200,-255 176,-636 -54,-866 -252,-252 -678,-252 -930,0 -229,229 -254,601 -57,861 14,19 20,21 32,40l-889 0 0 -726c0,-44 -29,-72 -73,-72l-290 0c-44,0 -72,28 -72,72l0 726 -73 0 0 -1016c0,-44 -29,-73 -73,-73l-290 0c-44,0 -73,29 -73,73z"/>
   <path class="fil0" d="M1597 2977c0,-92 145,-92 145,0 0,92 -145,92 -145,0zm2322 -145c0,-92 146,-92 146,0 0,92 -146,92 -146,0zm-3484 -218c0,-92 146,-92 146,0 0,92 -146,92 -146,0zm2323 -290c0,-92 145,-92 145,0 0,91 -145,91 -145,0zm-916 526c-31,-115 -320,-135 -363,27 -37,-19 -80,-32 -121,-51l-632 -266c-36,-37 -33,-164 -236,-164 -111,0 -200,96 -200,236 0,233 360,264 409,82l690 289c22,9 48,14 63,28 20,20 23,72 70,111 93,76 234,70 308,-13 43,-47 41,-101 84,-134 80,-62 162,-121 244,-183l430 -322c26,-20 37,-36 70,-39 18,66 168,134 293,56 45,-28 41,-44 70,-65l617 354c247,142 98,93 197,192 111,111 375,84 375,-174 0,-145 -184,-262 -338,-166 -45,29 -42,45 -71,66l-742 -428c-26,-24 -35,-82 -72,-119 -84,-84 -239,-81 -317,5 -43,47 -40,101 -84,134 -80,61 -162,121 -244,182 -83,63 -160,120 -244,183 -36,27 -214,176 -256,179z"/>
   <path class="fil0" d="M2976 1743c0,44 29,73 72,73 47,0 76,-44 102,-71l173 -172c50,-51 29,-49 124,-48l518 1c151,0 112,-146 27,-146l-653 0c-51,0 -145,113 -198,166 -52,53 -165,146 -165,197z"/>
   <path class="fil0" d="M290 2106c0,44 29,73 73,73l798 0c98,0 98,-146 0,-146l-798 0c-44,0 -73,29 -73,73z"/>
   <path class="fil0" d="M2831 3122c0,44 28,73 72,73l508 0c98,0 98,-145 0,-145l-508 0c-44,0 -72,28 -72,72z"/>
   <path class="fil0" d="M290 3558c0,44 29,72 73,72l435 0c98,0 98,-145 0,-145l-435 0c-44,0 -73,29 -73,73z"/>
   <path class="fil0" d="M3121 2904c0,102 136,73 290,73 98,0 98,-145 0,-145 -154,0 -290,-29 -290,72z"/>
   <path class="fil0" d="M1306 2106c0,86 86,73 146,73 97,0 97,-146 0,-146 -60,0 -146,-13 -146,73z"/>
   <path class="fil0" d="M944 3558c0,86 85,72 145,72 97,0 97,-145 0,-145 -60,0 -145,-14 -145,73z"/>
  </g>
 </g>
</svg>
