<?xml version="1.0" encoding="UTF-8"?>
<!DOCTYPE svg PUBLIC "-//W3C//DTD SVG 1.1//EN" "http://www.w3.org/Graphics/SVG/1.1/DTD/svg11.dtd">
<!-- Creator: CorelDRAW X7 -->
<svg xmlns="http://www.w3.org/2000/svg" xml:space="preserve" width="45mm" height="51.8918mm" version="1.1" style="shape-rendering:geometricPrecision; text-rendering:geometricPrecision; image-rendering:optimizeQuality; fill-rule:evenodd; clip-rule:evenodd"
viewBox="0 0 4500 5189"
 xmlns:xlink="http://www.w3.org/1999/xlink">
 <defs>
  <style type="text/css">
   <![CDATA[
    .fil0 {fill:#FEFEFE}
   ]]>
  </style>
 </defs>
 <g id="Warstwa_x0020_1">
  <metadata id="CorelCorpID_0Corel-Layer"/>
  <g id="_438291736">
   <path class="fil0" d="M0 892l0 1378c0,732 359,1573 844,2055l76 86c28,33 54,44 86,76l264 223c159,118 329,215 507,304 74,36 390,175 473,175 168,0 720,-299 880,-407 124,-84 344,-266 445,-365l155 -170c159,-207 181,-209 335,-466 80,-134 152,-277 215,-433 114,-286 220,-684 220,-1078l0 -1378c0,-85 -86,-99 -151,-123 -105,-40 -554,-222 -629,-222 -65,0 -92,50 -92,112 0,74 73,92 131,112l370 137c36,13 56,23 89,33 31,10 79,16 79,52l0 1115c0,947 -342,1633 -884,2177 -32,32 -45,43 -80,72 -251,201 -277,257 -644,440 -72,36 -381,179 -439,179 -26,0 -196,-68 -225,-79 -188,-76 -439,-212 -594,-328 -248,-183 -440,-355 -629,-608 -23,-31 -42,-55 -64,-87 -123,-181 -179,-279 -275,-485 -174,-372 -260,-811 -260,-1291l0 -1105c0,-24 -9,-20 65,-46l1930 -716c65,-22 67,-16 163,22 57,23 111,41 170,64 54,21 306,119 347,119 93,0 141,-130 56,-188l-285 -110c-80,-27 -346,-138 -399,-138 -54,0 -515,182 -577,204l-1575 583c-50,19 -98,41 -98,105z"/>
   <path class="fil0" d="M689 1328l1561 -604 1458 565c28,11 71,31 103,39 0,926 82,1607 -539,2390 -221,280 -499,495 -816,654 -223,111 -188,112 -405,3 -70,-35 -125,-64 -191,-104 -64,-39 -119,-74 -176,-117 -250,-189 -471,-413 -633,-685 -433,-726 -362,-1279 -362,-2141zm-203 -81l0 1033c0,503 234,1146 550,1529 240,290 502,540 846,715 52,26 325,158 368,158 79,0 426,-191 521,-249 166,-101 459,-331 569,-474l119 -145c80,-97 142,-200 208,-309 190,-311 347,-826 347,-1225l0 -1033c0,-49 -28,-71 -65,-88 -215,-94 -560,-214 -788,-306 -62,-25 -864,-346 -911,-346 -44,0 -182,64 -224,79l-1468 570c-36,15 -72,37 -72,91z"/>
   <path class="fil0" d="M1541 3213l0 -953c0,-65 37,-121 101,-121l1216 0c64,0 101,56 101,121l0 953c0,52 -36,121 -81,121l-1256 0c-41,0 -81,-58 -81,-121zm324 -1470c0,-532 770,-540 770,0l0 183 -770 0 0 -183zm-203 -50l0 233c-185,0 -324,151 -324,283l0 1055c0,36 18,86 31,111 49,95 158,172 273,172l1216 0c162,0 304,-149 304,-283l0 -1055c0,-89 -56,-153 -103,-200 -52,-51 -121,-83 -221,-83 0,-239 22,-426 -165,-616 -373,-381 -1011,-96 -1011,383z"/>
   <path class="fil0" d="M2149 2635c0,-130 202,-130 202,0 0,130 -202,130 -202,0zm-203 -30l0 61c0,105 112,245 203,253 0,133 0,182 111,182 97,0 91,-85 91,-182 91,-8 203,-148 203,-253l0 -61c0,-131 -143,-274 -274,-274l-60 0c-131,0 -274,143 -274,274z"/>
   <path class="fil0" d="M3405 497c0,-119 -154,-153 -199,-47 -38,87 43,168 128,138 33,-12 71,-51 71,-91z"/>
  </g>
 </g>
</svg>
