<?xml version="1.0" encoding="UTF-8"?>
<!DOCTYPE svg PUBLIC "-//W3C//DTD SVG 1.1//EN" "http://www.w3.org/Graphics/SVG/1.1/DTD/svg11.dtd">
<!-- Creator: CorelDRAW X7 -->
<svg xmlns="http://www.w3.org/2000/svg" xml:space="preserve" width="45mm" height="45mm" version="1.1" style="shape-rendering:geometricPrecision; text-rendering:geometricPrecision; image-rendering:optimizeQuality; fill-rule:evenodd; clip-rule:evenodd"
viewBox="0 0 4500 4500"
 xmlns:xlink="http://www.w3.org/1999/xlink">
 <defs>
  <style type="text/css">
   <![CDATA[
    .fil0 {fill:#FEFEFE}
   ]]>
  </style>
 </defs>
 <g id="Warstwa_x0020_1">
  <metadata id="CorelCorpID_0Corel-Layer"/>
  <g id="_437186136">
   <path class="fil0" d="M149 2522l0 -544c0,-134 86,-247 203,-247l3796 0c116,0 203,112 203,247l0 544c0,77 -21,123 -53,168 -25,35 -90,79 -150,79l-3796 0c-116,0 -203,-112 -203,-247zm-149 -597l0 650c0,88 53,192 113,248 64,58 160,104 256,104l3762 0c195,0 369,-169 369,-352l0 -650c0,-113 -71,-223 -162,-286 -18,-13 -37,-23 -56,-32 -42,-19 -89,-34 -151,-34l-3762 0c-74,0 -146,27 -202,62 -91,57 -167,178 -167,290z"/>
   <path class="fil0" d="M149 940l0 -536c0,-160 95,-255 255,-255l3692 0c160,0 255,95 255,255l0 536c0,79 -20,134 -58,180 -35,43 -88,75 -162,75l-3762 0c-145,0 -220,-119 -220,-255zm-149 -597l0 659c0,173 173,352 378,352l3744 0c110,0 201,-47 257,-104 58,-57 121,-137 121,-248l0 -642c0,-195 -178,-360 -343,-360l-3814 0c-88,0 -190,62 -236,107 -45,46 -107,148 -107,236z"/>
   <path class="fil0" d="M826 3823c0,-207 122,-376 284,-463 41,-22 141,-55 200,-55l1880 0c356,0 698,519 319,899 -92,92 -224,147 -406,147l-1706 0c-335,0 -571,-226 -571,-528zm-149 -52c0,152 -4,211 67,354 38,77 76,127 133,184 92,93 260,191 441,191l1864 0c341,0 641,-331 641,-615 0,-185 -11,-311 -131,-466 -55,-70 -93,-109 -167,-158 -107,-71 -236,-115 -379,-115l-1792 0c-139,0 -269,43 -373,111 -38,25 -61,46 -95,73 -45,35 -112,134 -139,185 -31,59 -70,168 -70,256z"/>
   <path class="fil0" d="M1143 2470l-633 0c-68,0 -53,-113 -53,-150 0,-70 0,-140 0,-211 273,183 308,321 566,127 60,-44 113,-87 172,-127l-1 306c-5,21 -25,55 -51,55zm-528 -440l422 0 -49 39c-170,127 -148,134 -280,35 -25,-18 -79,-54 -93,-74zm-316 53l0 334c0,111 112,211 228,211l607 0c112,0 220,-103 220,-237l0 -282c0,-130 -99,-237 -229,-237l-598 0c-116,0 -228,100 -228,211z"/>
   <path class="fil0" d="M1573 826c0,54 42,79 97,79l2285 0c139,0 114,-158 18,-158l-2321 0c-43,0 -79,36 -79,79z"/>
   <path class="fil0" d="M1573 2399c0,44 36,80 79,80l2321 0c96,0 121,-159 -18,-159l-2285 0c-55,0 -97,25 -97,79z"/>
   <path class="fil0" d="M817 756c51,0 85,8 116,42 25,28 33,58 43,98l-299 0c6,-76 56,-140 140,-140zm-61 -229c0,-101 140,-92 140,0 0,92 -140,97 -140,0zm-158 0c0,82 32,93 44,141 -65,17 -114,140 -120,223 -6,86 62,164 172,164l273 0c72,0 158,-63 158,-132 0,-74 0,-104 -38,-173 -23,-43 -52,-54 -76,-91 125,-236 -72,-360 -167,-360 -151,0 -246,100 -246,228z"/>
   <path class="fil0" d="M2030 3946c-85,-127 -228,-184 -228,-26 0,26 178,196 201,204 48,18 81,-23 129,-58 42,-32 74,-56 116,-87l346 -260c79,-59 104,-61 104,-124 0,-50 -32,-71 -79,-71 -44,0 -258,177 -296,205 -51,39 -95,71 -146,109 -51,38 -96,74 -147,108z"/>
   <path class="fil0" d="M1573 2101c0,54 42,79 97,79l334 0c139,0 113,-159 17,-159l-369 0c-43,0 -79,36 -79,80z"/>
   <path class="fil0" d="M1573 527c0,56 50,79 106,79l316 0c144,0 131,-158 26,-158l-369 0c-43,0 -79,36 -79,79z"/>
  </g>
 </g>
</svg>
