<?xml version="1.0" encoding="UTF-8"?>
<!DOCTYPE svg PUBLIC "-//W3C//DTD SVG 1.1//EN" "http://www.w3.org/Graphics/SVG/1.1/DTD/svg11.dtd">
<!-- Creator: CorelDRAW X7 -->
<svg xmlns="http://www.w3.org/2000/svg" xml:space="preserve" width="45mm" height="45mm" version="1.1" style="shape-rendering:geometricPrecision; text-rendering:geometricPrecision; image-rendering:optimizeQuality; fill-rule:evenodd; clip-rule:evenodd"
viewBox="0 0 4500 4500"
 xmlns:xlink="http://www.w3.org/1999/xlink">
 <defs>
  <style type="text/css">
   <![CDATA[
    .fil0 {fill:#FEFEFE}
   ]]>
  </style>
 </defs>
 <g id="Warstwa_x0020_1">
  <metadata id="CorelCorpID_0Corel-Layer"/>
  <g id="_437578720">
   <path class="fil0" d="M1742 4291c0,-45 37,-81 82,-81l852 0c93,0 82,97 82,145l-1016 0 0 -64zm-1334 -1170c7,-10 62,-57 77,-69l117 -101c18,-15 21,-15 40,-32 25,-23 58,-53 84,-70 0,93 -22,199 72,199l1234 0 0 146 -1234 0c-94,0 -72,106 -72,199 -23,-15 -58,-45 -80,-66 -18,-17 -21,-18 -39,-32l-199 -174zm2350 -73c0,-43 13,-126 22,-168 46,-205 150,-360 318,-481 225,-163 520,-191 779,-79 178,77 321,221 402,396 74,157 93,333 52,508 -69,300 -299,530 -599,599 -130,30 -221,30 -352,0 -116,-27 -183,-59 -277,-121 -206,-136 -345,-403 -345,-654zm-1814 -798c-44,0 -127,-13 -169,-22 -248,-56 -450,-219 -554,-444 -97,-208 -98,-439 -6,-653 171,-396 646,-588 1055,-405 399,179 580,650 399,1052 -34,76 -106,186 -163,236 -165,143 -331,236 -562,236zm2830 -526c0,-94 22,-200 -72,-200l-1234 0 0 -145 1234 0c94,0 72,-106 72,-200 23,16 58,46 80,66l156 134c15,11 73,61 82,73 -7,9 -62,57 -77,68l-241 204zm-2613 -1252c0,-182 117,-318 254,-318 28,0 191,177 234,220 25,26 48,61 93,61l1016 0c85,0 263,-281 327,-281 79,0 144,54 183,98 43,48 71,123 71,211l0 771 -944 0c-44,0 -72,29 -72,72l0 291c0,44 28,72 72,72l944 0 0 463c-136,3 -403,176 -495,294 -180,230 -231,379 -231,677 0,160 67,321 142,447 111,188 384,398 584,415 0,134 -6,210 -71,283 -105,119 -206,107 -365,107l0 -91c0,-100 -100,-199 -199,-199l-908 0c-99,0 -199,99 -199,199l0 91 -109 0c-205,0 -327,-121 -327,-327l0 -689 944 0c44,0 72,-29 72,-73l0 -290c0,-44 -28,-73 -72,-73l-944 0 0 -535c151,-13 401,-174 495,-294 180,-230 231,-379 231,-677 0,-217 -103,-402 -227,-562 -94,-123 -361,-297 -499,-300l0 -63zm472 -327l1234 0c-17,25 -126,145 -154,145l-926 0c-28,0 -137,-120 -154,-145zm-617 254l0 109c-188,0 -307,3 -481,91 -302,152 -535,463 -535,798 0,233 35,416 171,600 73,100 123,150 222,223 122,91 328,175 496,175l127 0 0 508 -145 0c0,-154 29,-290 -73,-290 -42,0 -127,80 -161,111 -48,45 -95,82 -145,127l-221 187c-143,112 42,194 221,353l181 155c16,13 21,21 37,35 107,92 161,35 161,-25l0 -217 145 0 0 762c0,53 23,119 42,157 12,25 23,42 38,62 14,17 35,46 50,60 14,13 11,8 25,19 77,60 146,101 262,101l1634 0c220,0 417,-197 417,-417l0 -91c189,0 306,-3 481,-91 300,-151 535,-466 535,-798 0,-182 -8,-299 -91,-463 -105,-209 -235,-339 -444,-444 -174,-88 -293,-91 -481,-91l0 -436 145 0c0,155 -29,291 73,291 26,0 29,-5 47,-17l480 -408c143,-112 -42,-194 -221,-353l-181 -155c-35,-29 -76,-83 -125,-83 -102,0 -73,135 -73,290l-145 0 0 -817c0,-81 -30,-168 -73,-227l-163 -145c-37,-19 -107,-45 -163,-45l-1670 0c-196,0 -399,203 -399,399z"/>
   <path class="fil0" d="M871 953c-316,73 -276,549 46,571 233,16 190,234 84,275 -104,41 -176,-16 -203,-130l-145 0c0,138 86,251 218,282l0 154 145 0 0 -154c316,-74 276,-549 -45,-572 -309,-21 -140,-391 53,-262 42,28 52,62 65,117l145 0c0,-138 -86,-251 -218,-281l0 -155 -145 0 0 155z"/>
   <path class="fil0" d="M3484 2549c-316,74 -276,549 45,572 234,16 191,233 85,275 -51,20 -98,14 -138,-13 -42,-28 -52,-62 -65,-117l-145 0c0,138 86,251 218,281l0 155 145 0 0 -155c64,-14 109,-45 148,-88 112,-127 90,-339 -59,-436 -41,-27 -73,-43 -135,-47 -308,-22 -139,-391 54,-262 41,27 52,62 65,117l145 0c0,-138 -86,-251 -218,-282l0 -154 -145 0 0 154z"/>
   <polygon class="fil0" points="1960,1089 2831,1089 2831,944 1960,944 "/>
   <polygon class="fil0" points="1669,3629 2540,3629 2540,3484 1669,3484 "/>
   <polygon class="fil0" points="2395,798 2976,798 2976,653 2395,653 "/>
   <polygon class="fil0" points="2105,3910 2685,3910 2685,3765 2105,3765 "/>
  </g>
 </g>
</svg>
