<?xml version="1.0" encoding="UTF-8"?>
<!DOCTYPE svg PUBLIC "-//W3C//DTD SVG 1.1//EN" "http://www.w3.org/Graphics/SVG/1.1/DTD/svg11.dtd">
<!-- Creator: CorelDRAW X7 -->
<svg xmlns="http://www.w3.org/2000/svg" xml:space="preserve" width="45mm" height="39.545mm" version="1.1" style="shape-rendering:geometricPrecision; text-rendering:geometricPrecision; image-rendering:optimizeQuality; fill-rule:evenodd; clip-rule:evenodd"
viewBox="0 0 4697 4127"
 xmlns:xlink="http://www.w3.org/1999/xlink">
 <defs>
  <style type="text/css">
   <![CDATA[
    .fil0 {fill:#FEFEFE}
   ]]>
  </style>
 </defs>
 <g id="Warstwa_x0020_1">
  <metadata id="CorelCorpID_0Corel-Layer"/>
  <path class="fil0" d="M1509 3701c47,0 190,80 236,103 203,102 295,143 506,-10 51,-37 157,-122 237,-122 136,0 324,136 348,242l-247 53c-337,60 -683,11 -994,-100 -64,-23 -132,-65 -192,-79 14,-61 77,-87 106,-87zm407 -659c44,-4 135,-42 174,-58 48,-19 127,-57 175,-68 21,90 97,119 97,262 0,78 -239,258 -446,-136zm-1773 -194c0,-82 13,-140 35,-207l48 -126c4,-10 4,-12 8,-21 12,-23 4,-10 16,-24 42,182 96,357 177,521 15,29 26,42 42,74 16,32 27,45 42,74 -135,0 -368,-100 -368,-291zm630 -474c0,-17 21,-56 31,-66 27,-24 67,-22 104,-22 66,0 90,27 124,61 83,84 94,102 151,217 222,451 434,229 530,410 -153,36 -268,78 -461,121 -178,39 -344,63 -547,63 -26,0 -47,-45 -60,-66 -17,-27 -32,-52 -47,-79 77,0 143,-36 190,-72 213,-158 -15,-436 -15,-567zm2548 193c0,96 35,151 89,202 153,141 317,38 376,50 -8,88 -337,234 -78,533 -99,148 -588,500 -746,504 -31,-133 -375,-487 -728,-224 -213,158 -205,159 -457,33 -178,-89 -340,-194 -500,46 -135,-71 -408,-302 -485,-417 220,0 551,-72 760,-132 44,-12 77,-19 113,-31 38,-13 79,-30 125,-31 15,66 106,169 152,216 125,126 334,155 465,43 25,-21 48,-41 65,-71 104,-188 -59,-346 -81,-430 28,-15 58,-24 87,-39 31,-15 56,-30 91,-44 202,-83 658,-351 855,-483l239 -167c31,-24 45,-43 84,-52 4,46 33,118 -5,189 -37,67 -110,34 -196,46 -121,17 -225,118 -225,259zm523 -591c34,-9 18,-5 42,-26 18,-17 24,-19 42,-35l245 -220c0,65 29,214 29,417 0,325 -105,646 -248,904 -27,48 -125,205 -159,230 -37,-72 -38,-53 -38,-146 0,-50 288,-249 128,-380 -155,-126 -260,62 -387,-58 -78,-75 -30,-216 87,-216 51,0 154,17 233,-60 112,-109 106,-291 26,-410zm-97 -96l-242 -146c0,-326 261,-307 261,-881 57,37 178,238 214,310 90,182 114,294 155,377 -38,25 -252,249 -388,340zm-1647 -911c-270,0 -281,-175 -484,-175 -231,0 -283,425 -163,551 37,39 81,64 147,75 136,24 265,-6 394,-24 204,-29 408,-22 515,-144 29,-32 62,-109 114,-109 46,0 87,79 87,126 0,112 -83,236 -105,350 -30,155 23,243 -111,355 -80,67 -162,136 -216,238 -156,293 -87,389 -71,578l-359 136c-61,-115 -125,-160 -250,-176 -249,-33 -242,-227 -420,-453 -197,-249 -541,-187 -541,96 0,162 269,484 -87,484 -38,0 -76,-129 -88,-163 -165,-458 -151,-1011 56,-1439 160,-332 353,-579 652,-791 432,-306 1009,-423 1547,-297 38,9 44,3 56,41 76,232 -16,466 -254,520 -128,30 -230,-5 -321,154 -20,35 -44,67 -98,67zm824 -717c42,3 166,63 206,84 222,111 258,152 434,292 85,68 67,66 67,215 0,176 -34,320 -96,437 -111,213 -166,196 -166,464 0,90 176,177 262,223 -28,41 -238,178 -297,217 -106,71 -206,130 -317,196l-591 310c-36,17 -61,25 -93,42l-10 -213c0,-153 115,-328 232,-417 224,-169 142,-235 190,-469 29,-140 187,-337 43,-539 -70,-98 -188,-121 -283,-49 -117,88 -50,145 -243,173 -68,10 -121,15 -188,25 -91,13 -426,87 -513,13 -23,-20 -36,-78 -32,-121 8,-80 19,-207 101,-199 107,11 218,178 441,178 259,0 193,-195 359,-213 61,-6 117,-11 165,-28 172,-58 338,-212 338,-437l-9 -184zm-2713 1753l1 245c-12,34 -319,467 -173,760 103,206 323,249 534,281 71,10 58,31 144,127l354 324c312,212 689,385 1116,385 419,0 667,-44 1027,-223 564,-280 955,-810 1089,-1430 56,-259 51,-539 3,-805 -24,-139 -29,-71 96,-230 29,-38 53,-65 80,-104 127,-187 215,-329 215,-579 0,-270 -323,-427 -562,-427 8,-31 21,-34 45,-51 155,-110 37,-162 13,-162 -54,0 -219,146 -274,182 -107,72 -82,97 -22,173l139 171c10,12 25,32 35,42 41,44 122,29 122,-45 0,-41 -35,-70 -57,-98 -24,-30 -48,-53 -69,-86 114,27 494,39 494,320 0,316 -295,583 -310,639 -24,-17 -43,-88 -64,-139 -56,-143 -133,-275 -219,-401 -99,-147 -171,-208 -286,-324 -302,-304 -861,-550 -1311,-550 -418,0 -611,31 -978,194 -56,25 -104,54 -158,84 -150,83 -308,212 -426,330 -88,88 -150,167 -224,269 -37,51 -67,99 -99,154 -34,58 -58,101 -85,166 -14,33 -23,48 -37,80 -88,219 -153,486 -153,728z"/>
 </g>
</svg>
